# xmcd
#
# Track frame offsets:
#	150
#	13252
#	29733
#	39385
#	53625
#	70768
#	83252
#	97445
#	112742
#	129622
#	145402
#	158650
#	164002
#	182557
#	196298
#	219336
#	230951
#	251153
#	267056
#
# Disc length: 3796 seconds
#
# Revision: 0
# Processed by: cddbd v1.5.2PL0 Copyright (c) Steve Scherf et al.
# Submitted via: audiograbber 1.83.01
#
DISCID=0f0ed213
DTITLE=Various Artist - Kids Club - Coco Loco Sommerparty Vol.3 - CD1
DYEAR=2013
DGENRE=Kids
TTITLE0=Volker Rosin - Schokoeis und Sonnenhut
TTITLE1=Kiddy's Corner Band - Sommer Sonne Rock'n Roll
TTITLE2=Sunny Rocket - Komm tanz mit mir (Geburtstagslied)
TTITLE3=Volker Rosin - Tschu Tschu Wah - Die Eisenbahn
TTITLE4=Kiddy's Corner Band - Partytiger Timmy
TTITLE5=Stephen Janetzko - Wenn Indianer tanzen
TTITLE6=Grünschnabel - Sommerferien
TTITLE7=Sternschnuppe - Wer hat die Kokosnuss geklaut?
TTITLE8=Kiddy's Corner Band - Die Tierpolonaise
TTITLE9=Sternschnuppe - Meine Oma fährt im Hühnerstall Motorrad
TTITLE10=Sunny Rocket - Copacabana Samba Bar
TTITLE11=Stephen Janetzko - Begrüßungslied (Wir Wollen Uns Begrüßen)
TTITLE12=Sternschnuppe - Von den blauen Bergen kommen wir
TTITLE13=Kiddy's Corner Band - Auf der Mauer
TTITLE14=Sternschnuppe - Der Sommer ist da
TTITLE15=Christian Hüser - Wir bewegen uns
TTITLE16=Grünschnabel - Spiegeleimusik
TTITLE17=Detlev Jöcker and Die Menschenkinder - Der Murmi Von Der Sonnenalp (Albu
TTITLE17=m Version)
TTITLE18=Christian Hüser - Viktor, der kleinste Vampir
EXTD=
EXTT0=
EXTT1=
EXTT2=
EXTT3=
EXTT4=
EXTT5=
EXTT6=
EXTT7=
EXTT8=
EXTT9=
EXTT10=
EXTT11=
EXTT12=
EXTT13=
EXTT14=
EXTT15=
EXTT16=
EXTT17=
EXTT18=
PLAYORDER=
